<svg width="105" height="66" viewBox="0 0 105 66" fill="none" xmlns="http://www.w3.org/2000/svg">
<path d="M24.4814 13.7048C24.757 13.0148 25.7693 13.0148 26.0448 13.7048L36.0003 38.1187H41.4873L31.1184 12.6728C29.0339 7.56594 21.5223 7.56594 19.4078 12.6728L9.04501 38.1187H14.5319L24.4814 13.7048Z" fill="url(#paint0_linear_1399_7503)"/>
<path d="M47.4294 8.86918C45.4527 8.86918 43.8773 10.485 43.8773 12.4369V34.545C43.8773 36.5264 45.4826 38.1128 47.4294 38.1128H58.5949C64.543 38.1128 69.2872 33.2713 69.2872 27.268V19.6785C69.2872 13.7048 64.549 8.8338 58.5949 8.8338L47.4294 8.85739V8.86918ZM64.597 26.8493C64.597 30.8417 62.4705 34.0968 58.4691 34.0968H49.8674C49.3642 34.0968 48.9629 33.6958 48.9629 33.2064V13.805C48.9629 13.3097 49.3702 12.9146 49.8674 12.9146H57.355C61.3324 12.9146 64.567 16.1403 64.567 20.1621L64.591 26.8552L64.597 26.8493Z" fill="url(#paint1_linear_1399_7503)"/>
<path d="M83.6394 34.0497C79.68 34.0497 76.4573 30.7945 76.4573 26.8022V20.109C76.4573 16.1167 79.68 12.8615 83.6394 12.8615H96.0149V8.83972H82.4354C76.5112 8.83972 71.6892 13.6812 71.6892 19.6844V27.274C71.6892 33.2477 76.4873 38.1187 82.4354 38.1187H96.0149V34.0733H83.6394V34.0497Z" fill="url(#paint2_linear_1399_7503)"/>
<path d="M55.2704 54.2943V44.4462H59.1819C61.5959 44.4462 62.8059 45.6374 62.8059 48.0139V50.7266C62.8059 53.1031 61.5959 54.2943 59.1819 54.2943H55.2704ZM56.4864 53.2092H59.2538C60.8112 53.2092 61.5899 52.4426 61.5899 50.9094V47.8252C61.5899 46.292 60.8112 45.5254 59.2538 45.5254H56.4864V53.2033V53.2092Z" fill="#676867"/>
<path d="M64.9504 45.5313V44.2162H66.1663V45.5313H64.9504ZM64.9803 54.2943V46.8758H66.1424V54.2943H64.9803Z" fill="#676867"/>
<path d="M68.3407 52.1537V49.0164C68.3407 47.5893 69.0655 46.8758 70.5151 46.8758H74.5764V55.0079C74.5764 56.4349 73.8516 57.1485 72.402 57.1485H69.5028L68.9218 56.718V56.146H72.402C73.0789 56.146 73.4143 55.8099 73.4143 55.1494V54.2943H70.5151C69.0655 54.2943 68.3407 53.5808 68.3407 52.1537ZM69.5028 52.2952C69.5028 52.9616 69.8383 53.2918 70.5151 53.2918H73.4143V47.8665H70.5151C69.8383 47.8665 69.5028 48.1967 69.5028 48.8631V52.2893V52.2952Z" fill="#676867"/>
<path d="M76.8646 45.5313V44.2162H78.0806V45.5313H76.8646ZM76.8946 54.2943V46.8758H78.0566V54.2943H76.8946Z" fill="#676867"/>
<path d="M80.3149 52.1537V44.4462H81.477V46.8699H84.2324V47.8665H81.477V52.2893C81.477 52.9557 81.8124 53.2859 82.4893 53.2859H84.3762V53.8579L83.7951 54.2884H82.4893C81.0397 54.2884 80.3149 53.5749 80.3149 52.1478V52.1537Z" fill="#676867"/>
<path d="M87.8384 54.2943C86.3769 54.2943 85.6521 53.5749 85.6521 52.1419C85.6521 50.7089 86.3829 49.9894 87.8384 49.9894H90.492V48.8749C90.492 48.2085 90.1566 47.8783 89.4797 47.8783H86.3769V47.3063L86.9579 46.8758H89.4797C90.9293 46.8758 91.6541 47.5893 91.6541 49.0164V54.2943H87.8444H87.8384ZM86.8081 52.2952C86.8081 52.9616 87.1436 53.2918 87.8205 53.2918H90.4861V50.9802H87.8205C87.1436 50.9802 86.8081 51.3104 86.8081 51.9768V52.2893V52.2952Z" fill="#676867"/>
<path d="M93.8585 52.2657V43.7327H95.0205V52.3837C95.0205 53.0323 95.356 53.3744 96.0329 53.4098V54.4064C94.5833 54.4064 93.8585 53.6928 93.8585 52.2657Z" fill="#676867"/>
<path d="M40.8822 47.9904H9.67996C9.34913 47.9904 9.08095 48.2544 9.08095 48.5801V50.1546C9.08095 50.4803 9.34913 50.7443 9.67996 50.7443H40.8822C41.2131 50.7443 41.4813 50.4803 41.4813 50.1546V48.5801C41.4813 48.2544 41.2131 47.9904 40.8822 47.9904Z" fill="url(#paint3_linear_1399_7503)"/>
<path d="M46.5728 47.9904H44.4763C44.1455 47.9904 43.8773 48.2544 43.8773 48.5801V50.1546C43.8773 50.4803 44.1455 50.7443 44.4763 50.7443H46.5728C46.9036 50.7443 47.1718 50.4803 47.1718 50.1546V48.5801C47.1718 48.2544 46.9036 47.9904 46.5728 47.9904Z" fill="#B51F32"/>
<path d="M52.2634 47.9904H50.1669C49.836 47.9904 49.5679 48.2544 49.5679 48.5801V50.1546C49.5679 50.4803 49.836 50.7443 50.1669 50.7443H52.2634C52.5942 50.7443 52.8624 50.4803 52.8624 50.1546V48.5801C52.8624 48.2544 52.5942 47.9904 52.2634 47.9904Z" fill="#B51F32"/>
<defs>
<linearGradient id="paint0_linear_1399_7503" x1="25.2601" y1="8.8456" x2="25.2601" y2="38.1187" gradientUnits="userSpaceOnUse">
<stop offset="0.16" stop-color="#ED1A38"/>
<stop offset="1" stop-color="#B51F32"/>
</linearGradient>
<linearGradient id="paint1_linear_1399_7503" x1="56.5822" y1="8.8397" x2="56.5822" y2="38.1128" gradientUnits="userSpaceOnUse">
<stop offset="0.16" stop-color="#ED1A38"/>
<stop offset="1" stop-color="#B51F32"/>
</linearGradient>
<linearGradient id="paint2_linear_1399_7503" x1="83.8491" y1="8.84562" x2="83.8491" y2="-81.6862" gradientUnits="userSpaceOnUse">
<stop offset="0.16" stop-color="#ED1A38"/>
<stop offset="1" stop-color="#B51F32"/>
</linearGradient>
<linearGradient id="paint3_linear_1399_7503" x1="17.2514" y1="49.3703" x2="29.7826" y2="49.3703" gradientUnits="userSpaceOnUse">
<stop offset="0.16" stop-color="#ED1A38"/>
<stop offset="1" stop-color="#B51F32"/>
</linearGradient>
</defs>
</svg>
